<?xml version="1.0" encoding="UTF-8" standalone="no"?>
<!-- Created with Inkscape (http://www.inkscape.org/) -->

<svg
   width="3251"
   height="417"
   viewBox="0 0 860.16036 110.33125"
   version="1.1"
   id="svg5"
   inkscape:version="1.1 (c68e22c387, 2021-05-23)"
   sodipodi:docname="Identitat Visual Digital S - ICS TE.svg"
   inkscape:export-filename="D:\OneDrive\Documentos\Feina\ICS\assets\Logos\Identitat Visual\Digital\Identitat Visual Digital S - ICS TE.png"
   inkscape:export-xdpi="117.87051"
   inkscape:export-ydpi="117.87051"
   xmlns:inkscape="http://www.inkscape.org/namespaces/inkscape"
   xmlns:sodipodi="http://sodipodi.sourceforge.net/DTD/sodipodi-0.dtd"
   xmlns="http://www.w3.org/2000/svg"
   xmlns:svg="http://www.w3.org/2000/svg">
  <sodipodi:namedview
     id="namedview7"
     pagecolor="#ffffff"
     bordercolor="#666666"
     borderopacity="1.0"
     inkscape:pageshadow="2"
     inkscape:pageopacity="0.0"
     inkscape:pagecheckerboard="0"
     inkscape:document-units="px"
     showgrid="false"
     units="px"
     width="512px"
     inkscape:showpageshadow="false"
     borderlayer="true"
     inkscape:zoom="0.26205012"
     inkscape:cx="1520.7015"
     inkscape:cy="337.72165"
     inkscape:window-width="1920"
     inkscape:window-height="1017"
     inkscape:window-x="-8"
     inkscape:window-y="-8"
     inkscape:window-maximized="1"
     inkscape:current-layer="layer1" />
  <defs
     id="defs2" />
  <g
     inkscape:label="Logo"
     inkscape:groupmode="layer"
     id="layer1"
     sodipodi:insensitive="true">
    <g
       id="g267"
       transform="translate(-1.1185803)">
      <g
         aria-label="S/"
         id="text1023"
         style="font-size:145.579px;line-height:1.25;opacity:1;fill:#7bacfc;stroke-width:3.63948">
        <path
           d="m 44.232861,109.321 q -20.23548,0 -31.590642,-9.17148 Q 1.2870575,90.978048 1.1414785,72.780674 H 13.806851 q 0.436737,25.476324 30.42601,25.476324 12.665372,0 19.362006,-4.949686 6.842213,-4.949686 6.842213,-14.412321 0,-7.424528 -5.677581,-11.50074 -5.532002,-4.221791 -19.507585,-7.27895 L 36.080437,58.077195 Q 20.357906,54.43772 12.49664,47.595508 4.6353744,40.607716 4.6353744,28.087922 q 0,-12.374214 9.6082136,-19.6531641 9.608214,-7.4245287 25.767482,-7.4245287 10.918425,0 18.925269,2.6204219 8.152424,2.6204219 12.665373,7.4245289 4.512949,4.658528 6.551055,10.190529 2.183685,5.532002 2.329264,12.228636 H 67.962237 Q 67.088763,22.410341 60.683287,17.315077 54.423391,12.074233 40.01107,12.074233 q -10.918425,0 -16.887163,4.221791 -5.82316,4.22179 -5.82316,11.791898 0,7.570108 5.095265,11.791899 4.949686,4.221791 19.216427,7.424529 l 9.171477,2.038105 q 17.178321,3.785054 24.748429,10.918425 7.570108,6.987792 7.570108,18.634111 0,14.121163 -10.336109,22.273589 -10.336109,8.15242 -28.533483,8.15242 z"
           style="font-family:'Helvetica Now Display';-inkscape-font-specification:'Helvetica Now Display';fill:#7bacfc"
           id="path104" />
        <path
           d="M 97.368856,106.99174 H 86.013694 L 123.13634,3.3394931 h 11.35516 z"
           style="font-family:'Helvetica Now Display';-inkscape-font-specification:'Helvetica Now Display';fill:#7bacfc"
           id="path106" />
      </g>
      <g
         aria-label="Institut Català de la Salut Terres de l'Ebre"
         id="text1155"
         style="font-size:51.8351px;line-height:1.25;fill:#000000;stroke-width:1.29588"
         transform="matrix(1.0798289,0,0,1.0798289,124.79909,-4.4038118)">
        <path
           d="m 150.23797,43.31266 h -4.35415 V 6.4060703 h 4.35415 z"
           style="font-family:'Helvetica Now Display';-inkscape-font-specification:'Helvetica Now Display';fill:#000000"
           id="path11" />
        <path
           d="m 169.05405,15.943728 q 4.45782,0 6.9459,2.43625 2.48809,2.43625 2.48809,6.842233 V 43.31266 h -4.14681 V 25.636892 q 0,-5.961037 -6.11654,-5.961037 -2.90277,0 -5.13168,2.177075 -2.22891,2.177074 -2.22891,6.323882 V 43.31266 h -4.1468 V 16.56575 h 3.93946 v 3.991302 q 3.05827,-4.613324 8.39729,-4.613324 z"
           style="font-family:'Helvetica Now Display';-inkscape-font-specification:'Helvetica Now Display';fill:#000000"
           id="path13" />
        <path
           d="m 194.14218,43.934681 q -10.72986,0 -11.35188,-9.122977 h 4.19864 q 0.36285,3.006436 1.96974,4.302313 1.65872,1.244043 5.1835,1.244043 6.42756,0 6.42756,-4.146808 0,-1.814229 -1.34772,-2.74726 -1.29587,-0.933032 -4.76882,-1.606888 l -2.48809,-0.466516 q -8.34545,-1.555053 -8.34545,-7.878935 0,-3.472952 2.59175,-5.494521 2.64359,-2.073404 7.15325,-2.073404 10.62619,0 10.88537,8.863802 h -4.14681 q -0.1555,-2.902765 -1.76239,-4.094973 -1.60689,-1.192207 -4.97617,-1.192207 -2.69543,0 -4.14681,1.036702 -1.45138,1.036702 -1.45138,2.902766 0,1.762393 1.24404,2.64359 1.24404,0.881196 4.14681,1.503217 l 2.38441,0.466516 q 4.92434,0.984867 7.04958,2.799096 2.17707,1.814228 2.17707,5.079839 0,3.783962 -2.85093,5.909201 -2.7991,2.073404 -7.77527,2.073404 z"
           style="font-family:'Helvetica Now Display';-inkscape-font-specification:'Helvetica Now Display';fill:#000000"
           id="path15" />
        <path
           d="m 220.11151,16.56575 v 3.628456 h -5.49452 v 17.364758 q 0,2.280745 3.05827,2.280745 h 2.43625 v 3.472951 q -1.71056,0.155506 -2.9546,0.155506 -6.68673,0 -6.68673,-5.546356 V 20.194206 H 206.0642 V 16.56575 h 4.40598 V 8.9978252 h 4.14681 V 16.56575 Z"
           style="font-family:'Helvetica Now Display';-inkscape-font-specification:'Helvetica Now Display';fill:#000000"
           id="path17" />
        <path
           d="m 228.76792,12.522612 h -4.40599 V 7.4427722 h 4.40599 z m -0.10367,30.790048 h -4.14681 V 16.56575 h 4.14681 z"
           style="font-family:'Helvetica Now Display';-inkscape-font-specification:'Helvetica Now Display';fill:#000000"
           id="path19" />
        <path
           d="m 246.59913,16.56575 v 3.628456 h -5.49452 v 17.364758 q 0,2.280745 3.05827,2.280745 h 2.43625 v 3.472951 q -1.71056,0.155506 -2.9546,0.155506 -6.68673,0 -6.68673,-5.546356 V 20.194206 h -4.40598 V 16.56575 h 4.40598 V 8.9978252 h 4.14681 V 16.56575 Z"
           style="font-family:'Helvetica Now Display';-inkscape-font-specification:'Helvetica Now Display';fill:#000000"
           id="path21" />
        <path
           d="M 268.62899,31.701598 V 16.56575 h 4.14681 v 26.74691 h -3.93947 v -3.991302 q -3.05827,4.613323 -8.39729,4.613323 -4.45781,0 -6.9459,-2.436249 -2.48808,-2.43625 -2.48808,-6.842233 V 16.56575 h 4.1468 v 17.675768 q 0,5.961036 6.11655,5.961036 2.90276,0 5.13167,-2.177074 2.22891,-2.177074 2.22891,-6.323882 z"
           style="font-family:'Helvetica Now Display';-inkscape-font-specification:'Helvetica Now Display';fill:#000000"
           id="path23" />
        <path
           d="m 290.71069,16.56575 v 3.628456 h -5.49452 v 17.364758 q 0,2.280745 3.05827,2.280745 h 2.43625 v 3.472951 q -1.71056,0.155506 -2.9546,0.155506 -6.68673,0 -6.68673,-5.546356 V 20.194206 h -4.40598 V 16.56575 h 4.40598 V 8.9978252 h 4.14681 V 16.56575 Z"
           style="font-family:'Helvetica Now Display';-inkscape-font-specification:'Helvetica Now Display';fill:#000000"
           id="path25" />
        <path
           d="m 320.72308,44.142022 q -7.51609,0 -12.28492,-5.235345 -4.76883,-5.235345 -4.76883,-14.047312 0,-8.811966 4.76883,-14.047311 4.76883,-5.2353453 12.28492,-5.2353453 5.96103,0 10.15968,3.2656112 4.19864,3.2137761 5.54635,9.4339881 h -4.40598 q -2.33258,-8.7082968 -11.30005,-8.7082968 -5.65003,0 -9.07114,4.0431378 -3.42112,4.094973 -3.42112,11.248216 0,7.153244 3.42112,11.196381 3.42111,4.094973 9.07114,4.094973 4.25048,0 7.56792,-2.64359 3.26561,-2.53992 3.99131,-7.619759 h 4.35414 q -0.72569,6.894068 -5.23534,10.522525 -4.56149,3.732127 -10.67803,3.732127 z"
           style="font-family:'Helvetica Now Display';-inkscape-font-specification:'Helvetica Now Display';fill:#000000"
           id="path27" />
        <path
           d="m 363.17594,39.943379 h 1.50322 v 3.369281 q -1.03671,0.155506 -2.28075,0.155506 -4.19864,0 -4.50965,-3.835798 -2.7991,4.302313 -8.7083,4.302313 -4.40598,0 -6.9459,-2.021568 -2.48809,-2.073404 -2.48809,-5.805531 0,-7.256914 9.90051,-8.293616 l 3.8358,-0.414681 q 4.19864,-0.466516 4.19864,-3.680292 0,-2.228909 -1.39955,-3.213776 -1.34771,-0.984867 -4.61332,-0.984867 -3.47295,0 -5.02801,1.192207 -1.50322,1.140373 -1.71056,4.094973 h -4.1468 q 0.51835,-8.863802 10.88537,-8.863802 10.05601,0 10.05601,7.775265 v 14.928508 q 0,1.295878 1.45138,1.295878 z m -13.78814,0.466516 q 3.31745,0 5.80553,-2.021569 2.48809,-1.969734 2.48809,-5.650026 v -3.161941 q -1.14037,0.881197 -3.52479,1.140372 l -3.88763,0.466516 q -3.36928,0.414681 -4.82066,1.555053 -1.39955,1.140372 -1.39955,3.265611 0,2.073404 1.34771,3.265612 1.34771,1.140372 3.9913,1.140372 z"
           style="font-family:'Helvetica Now Display';-inkscape-font-specification:'Helvetica Now Display';fill:#000000"
           id="path29" />
        <path
           d="m 378.98562,16.56575 v 3.628456 h -5.49452 v 17.364758 q 0,2.280745 3.05827,2.280745 h 2.43625 v 3.472951 q -1.71056,0.155506 -2.9546,0.155506 -6.68673,0 -6.68673,-5.546356 V 20.194206 h -4.40598 V 16.56575 h 4.40598 V 8.9978252 h 4.14681 V 16.56575 Z"
           style="font-family:'Helvetica Now Display';-inkscape-font-specification:'Helvetica Now Display';fill:#000000"
           id="path31" />
        <path
           d="m 405.00672,39.943379 h 1.50322 v 3.369281 q -1.03671,0.155506 -2.28075,0.155506 -4.19864,0 -4.50965,-3.835798 -2.7991,4.302313 -8.7083,4.302313 -4.40598,0 -6.9459,-2.021568 -2.48809,-2.073404 -2.48809,-5.805531 0,-7.256914 9.90051,-8.293616 l 3.8358,-0.414681 q 4.19864,-0.466516 4.19864,-3.680292 0,-2.228909 -1.39955,-3.213776 -1.34771,-0.984867 -4.61332,-0.984867 -3.47295,0 -5.02801,1.192207 -1.50322,1.140373 -1.71056,4.094973 h -4.1468 q 0.51835,-8.863802 10.88537,-8.863802 10.05601,0 10.05601,7.775265 v 14.928508 q 0,1.295878 1.45138,1.295878 z m -13.78814,0.466516 q 3.31745,0 5.80553,-2.021569 2.48809,-1.969734 2.48809,-5.650026 v -3.161941 q -1.14037,0.881197 -3.52479,1.140372 l -3.88763,0.466516 q -3.36928,0.414681 -4.82066,1.555053 -1.39955,1.140372 -1.39955,3.265611 0,2.073404 1.34771,3.265612 1.34771,1.140372 3.9913,1.140372 z"
           style="font-family:'Helvetica Now Display';-inkscape-font-specification:'Helvetica Now Display';fill:#000000"
           id="path33" />
        <path
           d="m 414.02597,43.31266 h -4.14681 V 6.4060703 h 4.14681 z"
           style="font-family:'Helvetica Now Display';-inkscape-font-specification:'Helvetica Now Display';fill:#000000"
           id="path35" />
        <path
           d="m 428.07324,5.0583577 4.45782,7.4642543 h -3.6803 l -6.37571,-7.4642543 z m 14.04731,34.8850213 h 1.50322 v 3.369281 q -1.0367,0.155506 -2.28075,0.155506 -4.19864,0 -4.50965,-3.835798 -2.7991,4.302313 -8.7083,4.302313 -4.40598,0 -6.9459,-2.021568 -2.48808,-2.073404 -2.48808,-5.805531 0,-7.256914 9.9005,-8.293616 l 3.8358,-0.414681 q 4.19864,-0.466516 4.19864,-3.680292 0,-2.228909 -1.39955,-3.213776 -1.34771,-0.984867 -4.61332,-0.984867 -3.47295,0 -5.02801,1.192207 -1.50321,1.140373 -1.71056,4.094973 h -4.1468 q 0.51835,-8.863802 10.88537,-8.863802 10.05601,0 10.05601,7.775265 v 14.928508 q 0,1.295878 1.45138,1.295878 z m -13.78814,0.466516 q 3.31745,0 5.80553,-2.021569 2.48809,-1.969734 2.48809,-5.650026 v -3.161941 q -1.14037,0.881197 -3.52479,1.140372 l -3.88763,0.466516 q -3.36928,0.414681 -4.82066,1.555053 -1.39955,1.140372 -1.39955,3.265611 0,2.073404 1.34771,3.265612 1.34771,1.140372 3.9913,1.140372 z"
           style="font-family:'Helvetica Now Display';-inkscape-font-specification:'Helvetica Now Display';fill:#000000"
           id="path37" />
        <path
           d="M 477.21283,20.401547 V 6.4060703 h 4.14681 V 43.31266 h -3.93947 v -4.146808 q -3.21377,4.768829 -9.17481,4.768829 -5.65003,0 -9.01931,-3.835797 -3.42111,-3.835797 -3.42111,-10.159679 0,-6.427552 3.42111,-10.211514 3.31745,-3.783963 9.01931,-3.783963 5.7537,0 8.96747,4.457819 z m -17.05375,9.744998 q 0,4.768829 2.33258,7.412419 2.33258,2.64359 6.27205,2.64359 3.93947,0 6.27205,-2.74726 2.33258,-2.695425 2.33258,-7.516089 0,-4.768829 -2.33258,-7.516089 -2.33258,-2.747261 -6.27205,-2.747261 -3.88763,0 -6.27205,2.850931 -2.33258,2.799095 -2.33258,7.619759 z"
           style="font-family:'Helvetica Now Display';-inkscape-font-specification:'Helvetica Now Display';fill:#000000"
           id="path39" />
        <path
           d="m 510.90561,29.939205 v 1.451383 h -20.31936 q 0.31101,4.354148 2.43625,6.583057 2.12524,2.177074 5.80553,2.177074 5.54636,0 7.10141,-4.976169 h 4.30232 q -1.08854,4.043137 -4.04314,6.427552 -2.9546,2.332579 -7.46426,2.332579 -5.54635,0 -8.96747,-3.783962 -3.47295,-3.783962 -3.47295,-10.211514 0,-6.323882 3.42112,-10.159679 3.36928,-3.835798 8.91563,-3.835798 5.7537,0 9.01931,3.991303 3.26561,3.991302 3.26561,10.004174 z M 498.62069,19.727691 q -3.26561,0 -5.33901,2.073403 -2.07341,2.021569 -2.59176,5.857367 h 15.75787 q -0.31101,-3.524787 -2.38441,-5.701861 -2.07341,-2.228909 -5.44269,-2.228909 z"
           style="font-family:'Helvetica Now Display';-inkscape-font-specification:'Helvetica Now Display';fill:#000000"
           id="path41" />
        <path
           d="m 529.82526,43.31266 h -4.14681 V 6.4060703 h 4.14681 z"
           style="font-family:'Helvetica Now Display';-inkscape-font-specification:'Helvetica Now Display';fill:#000000"
           id="path43" />
        <path
           d="m 557.9198,39.943379 h 1.50322 v 3.369281 q -1.0367,0.155506 -2.28074,0.155506 -4.19864,0 -4.50966,-3.835798 -2.79909,4.302313 -8.70829,4.302313 -4.40599,0 -6.9459,-2.021568 -2.48809,-2.073404 -2.48809,-5.805531 0,-7.256914 9.9005,-8.293616 l 3.8358,-0.414681 q 4.19864,-0.466516 4.19864,-3.680292 0,-2.228909 -1.39954,-3.213776 -1.34772,-0.984867 -4.61333,-0.984867 -3.47295,0 -5.028,1.192207 -1.50322,1.140373 -1.71056,4.094973 h -4.14681 q 0.51835,-8.863802 10.88537,-8.863802 10.05601,0 10.05601,7.775265 v 14.928508 q 0,1.295878 1.45138,1.295878 z m -13.78813,0.466516 q 3.31744,0 5.80553,-2.021569 2.48808,-1.969734 2.48808,-5.650026 v -3.161941 q -1.14037,0.881197 -3.52478,1.140372 l -3.88763,0.466516 q -3.36929,0.414681 -4.82067,1.555053 -1.39955,1.140372 -1.39955,3.265611 0,2.073404 1.34772,3.265612 1.34771,1.140372 3.9913,1.140372 z"
           style="font-family:'Helvetica Now Display';-inkscape-font-specification:'Helvetica Now Display';fill:#000000"
           id="path45" />
        <path
           d="m 586.6882,44.142022 q -7.20507,0 -11.24821,-3.265611 -4.04314,-3.265612 -4.09497,-9.744999 h 4.50965 q 0.1555,9.071142 10.83353,9.071142 4.50966,0 6.89407,-1.762393 2.43625,-1.762393 2.43625,-5.131675 0,-2.64359 -2.02157,-4.094973 -1.96973,-1.503217 -6.9459,-2.591754 l -3.26561,-0.725692 q -5.59819,-1.295877 -8.39729,-3.732127 -2.79909,-2.488085 -2.79909,-6.945903 0,-4.405983 3.42111,-6.9977383 3.42112,-2.64359 9.17482,-2.64359 3.88763,0 6.73856,0.9330317 2.90277,0.9330318 4.50965,2.6435901 1.60689,1.6587235 2.33258,3.6284565 0.77753,1.969734 0.82936,4.354149 h -4.45781 q -0.31101,-3.939468 -2.59176,-5.753696 -2.22891,-1.8660639 -7.36058,-1.8660639 -3.88764,0 -6.01287,1.5032179 -2.07341,1.503218 -2.07341,4.198643 0,2.695425 1.81423,4.198643 1.76239,1.503218 6.84223,2.64359 l 3.26561,0.725691 q 6.11655,1.347713 8.81197,3.887633 2.69543,2.488084 2.69543,6.634892 0,5.028005 -3.6803,7.93077 -3.68029,2.902766 -10.15968,2.902766 z"
           style="font-family:'Helvetica Now Display';-inkscape-font-specification:'Helvetica Now Display';fill:#000000"
           id="path47" />
        <path
           d="m 627.0676,39.943379 h 1.50322 v 3.369281 q -1.0367,0.155506 -2.28075,0.155506 -4.19864,0 -4.50965,-3.835798 -2.79909,4.302313 -8.7083,4.302313 -4.40598,0 -6.9459,-2.021568 -2.48808,-2.073404 -2.48808,-5.805531 0,-7.256914 9.9005,-8.293616 l 3.8358,-0.414681 q 4.19864,-0.466516 4.19864,-3.680292 0,-2.228909 -1.39955,-3.213776 -1.34771,-0.984867 -4.61332,-0.984867 -3.47295,0 -5.028,1.192207 -1.50322,1.140373 -1.71056,4.094973 h -4.14681 q 0.51835,-8.863802 10.88537,-8.863802 10.05601,0 10.05601,7.775265 v 14.928508 q 0,1.295878 1.45138,1.295878 z m -13.78813,0.466516 q 3.31744,0 5.80553,-2.021569 2.48808,-1.969734 2.48808,-5.650026 v -3.161941 q -1.14037,0.881197 -3.52479,1.140372 l -3.88763,0.466516 q -3.36928,0.414681 -4.82066,1.555053 -1.39955,1.140372 -1.39955,3.265611 0,2.073404 1.34771,3.265612 1.34772,1.140372 3.99131,1.140372 z"
           style="font-family:'Helvetica Now Display';-inkscape-font-specification:'Helvetica Now Display';fill:#000000"
           id="path49" />
        <path
           d="m 636.08685,43.31266 h -4.1468 V 6.4060703 h 4.1468 z"
           style="font-family:'Helvetica Now Display';-inkscape-font-specification:'Helvetica Now Display';fill:#000000"
           id="path51" />
        <path
           d="M 659.93095,31.701598 V 16.56575 h 4.14681 v 26.74691 h -3.93947 v -3.991302 q -3.05827,4.613323 -8.39728,4.613323 -4.45782,0 -6.9459,-2.436249 -2.48809,-2.43625 -2.48809,-6.842233 V 16.56575 h 4.14681 v 17.675768 q 0,5.961036 6.11654,5.961036 2.90277,0 5.13167,-2.177074 2.22891,-2.177074 2.22891,-6.323882 z"
           style="font-family:'Helvetica Now Display';-inkscape-font-specification:'Helvetica Now Display';fill:#000000"
           id="path53" />
        <path
           d="m 682.01266,16.56575 v 3.628456 h -5.49452 v 17.364758 q 0,2.280745 3.05827,2.280745 h 2.43625 v 3.472951 q -1.71056,0.155506 -2.9546,0.155506 -6.68673,0 -6.68673,-5.546356 V 20.194206 h -4.40598 V 16.56575 h 4.40598 V 8.9978252 h 4.14681 V 16.56575 Z"
           style="font-family:'Helvetica Now Display';-inkscape-font-specification:'Helvetica Now Display';fill:#000000"
           id="path55" />
        <path
           d="m 143.55124,67.74431 h 29.59784 v 3.939467 H 160.60499 V 104.6509 h -4.50965 V 71.683777 h -12.5441 z"
           style="font-family:'Helvetica Now Display';-inkscape-font-specification:'Helvetica Now Display';opacity:1;fill:#4d4d4d"
           id="path57" />
        <path
           d="m 194.40134,91.277444 v 1.451383 h -20.31936 q 0.31101,4.354148 2.43625,6.583058 2.12524,2.177075 5.80553,2.177075 5.54635,0 7.10141,-4.976171 h 4.30231 q -1.08854,4.043141 -4.04314,6.427551 -2.9546,2.33258 -7.46425,2.33258 -5.54636,0 -8.96747,-3.78396 -3.47296,-3.783963 -3.47296,-10.211516 0,-6.323882 3.42112,-10.159679 3.36928,-3.835797 8.91564,-3.835797 5.75369,0 9.0193,3.991302 3.26562,3.991303 3.26562,10.004174 z M 182.11642,81.06593 q -3.26561,0 -5.33902,2.073404 -2.0734,2.021569 -2.59175,5.857366 h 15.75787 q -0.31101,-3.524787 -2.38442,-5.701861 -2.0734,-2.228909 -5.44268,-2.228909 z"
           style="font-family:'Helvetica Now Display';-inkscape-font-specification:'Helvetica Now Display';opacity:1;fill:#4d4d4d"
           id="path59" />
        <path
           d="m 211.86967,77.489308 q 1.0367,0 1.39955,0.05184 v 3.991303 h -1.03671 q -4.1468,0 -6.47938,2.073404 -2.28075,2.021569 -2.28075,5.805531 V 104.6509 h -4.1468 V 77.903989 h 3.93946 v 4.716994 q 2.69543,-5.131675 8.60463,-5.131675 z"
           style="font-family:'Helvetica Now Display';-inkscape-font-specification:'Helvetica Now Display';opacity:1;fill:#4d4d4d"
           id="path61" />
        <path
           d="m 229.70084,77.489308 q 1.0367,0 1.39955,0.05184 v 3.991303 h -1.03671 q -4.1468,0 -6.47938,2.073404 -2.28075,2.021569 -2.28075,5.805531 V 104.6509 h -4.14681 V 77.903989 h 3.93947 v 4.716994 q 2.69543,-5.131675 8.60463,-5.131675 z"
           style="font-family:'Helvetica Now Display';-inkscape-font-specification:'Helvetica Now Display';opacity:1;fill:#4d4d4d"
           id="path63" />
        <path
           d="m 256.75862,91.277444 v 1.451383 h -20.31936 q 0.31101,4.354148 2.43625,6.583058 2.12524,2.177075 5.80553,2.177075 5.54635,0 7.10141,-4.976171 h 4.30231 q -1.08854,4.043141 -4.04314,6.427551 -2.9546,2.33258 -7.46425,2.33258 -5.54636,0 -8.96747,-3.78396 -3.47296,-3.783963 -3.47296,-10.211516 0,-6.323882 3.42112,-10.159679 3.36928,-3.835797 8.91564,-3.835797 5.75369,0 9.0193,3.991302 3.26562,3.991303 3.26562,10.004174 z M 244.4737,81.06593 q -3.26561,0 -5.33902,2.073404 -2.0734,2.021569 -2.59175,5.857366 h 15.75787 q -0.31101,-3.524787 -2.38442,-5.701861 -2.0734,-2.228909 -5.44268,-2.228909 z"
           style="font-family:'Helvetica Now Display';-inkscape-font-specification:'Helvetica Now Display';opacity:1;fill:#4d4d4d"
           id="path65" />
        <path
           d="m 270.85762,105.27292 q -10.72987,0 -11.35189,-9.122976 h 4.19864 q 0.36285,3.006435 1.96974,4.302316 1.65872,1.24404 5.18351,1.24404 6.42755,0 6.42755,-4.146809 0,-1.814228 -1.34771,-2.74726 -1.29588,-0.933032 -4.76883,-1.606888 l -2.48809,-0.466516 q -8.34545,-1.555053 -8.34545,-7.878935 0,-3.472951 2.59176,-5.49452 2.64359,-2.073404 7.15324,-2.073404 10.62619,0 10.88537,8.863802 h -4.14681 q -0.1555,-2.902766 -1.76239,-4.094973 -1.60689,-1.192207 -4.97617,-1.192207 -2.69543,0 -4.14681,1.036702 -1.45138,1.036702 -1.45138,2.902765 0,1.762393 1.24404,2.64359 1.24404,0.881197 4.14681,1.503218 l 2.38441,0.466516 q 4.92434,0.984867 7.04958,2.799095 2.17707,1.814229 2.17707,5.07984 0,3.783964 -2.85093,5.909204 -2.79909,2.0734 -7.77526,2.0734 z"
           style="font-family:'Helvetica Now Display';-inkscape-font-specification:'Helvetica Now Display';opacity:1;fill:#4d4d4d"
           id="path67" />
        <path
           d="M 315.59119,81.739786 V 67.74431 h 4.14681 v 36.90659 h -3.93947 v -4.14681 q -3.21378,4.76883 -9.17481,4.76883 -5.65003,0 -9.01931,-3.8358 -3.42112,-3.835794 -3.42112,-10.159676 0,-6.427552 3.42112,-10.211514 3.31745,-3.783962 9.01931,-3.783962 5.75369,0 8.96747,4.457818 z m -17.05375,9.744999 q 0,4.768829 2.33258,7.412419 2.33258,2.643586 6.27205,2.643586 3.93946,0 6.27204,-2.747256 2.33258,-2.695426 2.33258,-7.51609 0,-4.768829 -2.33258,-7.516089 -2.33258,-2.74726 -6.27204,-2.74726 -3.88764,0 -6.27205,2.85093 -2.33258,2.799096 -2.33258,7.61976 z"
           style="font-family:'Helvetica Now Display';-inkscape-font-specification:'Helvetica Now Display';opacity:1;fill:#4d4d4d"
           id="path69" />
        <path
           d="m 349.28397,91.277444 v 1.451383 h -20.31936 q 0.31101,4.354148 2.43625,6.583058 2.12524,2.177075 5.80553,2.177075 5.54636,0 7.10141,-4.976171 h 4.30231 q -1.08853,4.043141 -4.04314,6.427551 -2.9546,2.33258 -7.46425,2.33258 -5.54636,0 -8.96747,-3.78396 -3.47295,-3.783963 -3.47295,-10.211516 0,-6.323882 3.42111,-10.159679 3.36928,-3.835797 8.91564,-3.835797 5.7537,0 9.01931,3.991302 3.26561,3.991303 3.26561,10.004174 z M 336.99905,81.06593 q -3.26561,0 -5.33902,2.073404 -2.0734,2.021569 -2.59175,5.857366 h 15.75787 q -0.31101,-3.524787 -2.38441,-5.701861 -2.07341,-2.228909 -5.44269,-2.228909 z"
           style="font-family:'Helvetica Now Display';-inkscape-font-specification:'Helvetica Now Display';opacity:1;fill:#4d4d4d"
           id="path71" />
        <path
           d="m 368.20361,104.6509 h -4.1468 V 67.74431 h 4.1468 z"
           style="font-family:'Helvetica Now Display';-inkscape-font-specification:'Helvetica Now Display';opacity:1;fill:#4d4d4d"
           id="path73" />
        <path
           d="m 378.4669,80.96226 h -3.21377 l -0.57019,-13.21795 h 4.35415 z"
           style="font-family:'Helvetica Now Display';-inkscape-font-specification:'Helvetica Now Display';opacity:1;fill:#4d4d4d"
           id="path75" />
        <path
           d="m 411.43395,67.74431 v 3.939467 h -21.30422 v 11.766568 h 19.23082 v 3.939467 h -19.23082 v 13.321618 h 21.09688 v 3.93947 H 385.77558 V 67.74431 Z"
           style="font-family:'Helvetica Now Display';-inkscape-font-specification:'Helvetica Now Display';opacity:1;fill:#4d4d4d"
           id="path77" />
        <path
           d="m 428.95417,77.281968 q 5.65002,0 9.07114,3.783962 3.36928,3.835797 3.36928,10.211514 0,6.323882 -3.36928,10.159676 -3.42112,3.8358 -9.07114,3.8358 -5.96104,0 -9.17481,-4.76883 v 4.14681 h -3.93947 V 67.74431 h 4.14681 v 13.995476 q 3.21377,-4.457818 8.96747,-4.457818 z m -0.51835,24.258822 q 3.88763,0 6.22021,-2.799092 2.38441,-2.85093 2.38441,-7.671594 0,-4.716994 -2.33258,-7.360584 -2.28074,-2.695425 -6.27204,-2.695425 -3.93947,0 -6.27205,2.695425 -2.33258,2.695425 -2.33258,7.567924 0,4.820664 2.33258,7.51609 2.33258,2.747256 6.27205,2.747256 z"
           style="font-family:'Helvetica Now Display';-inkscape-font-specification:'Helvetica Now Display';opacity:1;fill:#4d4d4d"
           id="path79" />
        <path
           d="m 458.86299,77.489308 q 1.0367,0 1.39954,0.05184 v 3.991303 h -1.0367 q -4.14681,0 -6.47939,2.073404 -2.28074,2.021569 -2.28074,5.805531 V 104.6509 h -4.14681 V 77.903989 h 3.93947 v 4.716994 q 2.69542,-5.131675 8.60463,-5.131675 z"
           style="font-family:'Helvetica Now Display';-inkscape-font-specification:'Helvetica Now Display';opacity:1;fill:#4d4d4d"
           id="path81" />
        <path
           d="m 485.92078,91.277444 v 1.451383 h -20.31936 q 0.31101,4.354148 2.43625,6.583058 2.12524,2.177075 5.80553,2.177075 5.54636,0 7.10141,-4.976171 h 4.30231 q -1.08853,4.043141 -4.04314,6.427551 -2.9546,2.33258 -7.46425,2.33258 -5.54635,0 -8.96747,-3.78396 -3.47295,-3.783963 -3.47295,-10.211516 0,-6.323882 3.42111,-10.159679 3.36928,-3.835797 8.91564,-3.835797 5.7537,0 9.01931,3.991302 3.26561,3.991303 3.26561,10.004174 z M 473.63586,81.06593 q -3.26561,0 -5.33901,2.073404 -2.07341,2.021569 -2.59176,5.857366 h 15.75787 q -0.31101,-3.524787 -2.38441,-5.701861 -2.07341,-2.228909 -5.44269,-2.228909 z"
           style="font-family:'Helvetica Now Display';-inkscape-font-specification:'Helvetica Now Display';opacity:1;fill:#4d4d4d"
           id="path83" />
      </g>
      <polygon
         class="cls-1"
         points="0,18.57 25.91,18.57 28.48,16.09 0,16.09 0,13.62 13.04,13.62 13.04,0 31.75,0 31.75,13.62 44.79,13.62 44.79,30.98 31.75,30.98 31.75,44.68 13.04,44.68 13.04,30.98 0,30.98 0,28.48 15.63,28.48 18.21,26 0,26 0,23.51 20.79,23.51 23.33,21.06 0,21.06 "
         id="polygon6"
         style="opacity:1;fill:#7bacfc"
         transform="matrix(2.4160433,0,0,2.4219915,147.82607,1.058333)" />
    </g>
  </g>
</svg>
